HIERARCHY
ROOT Hips
{
	OFFSET -3.958830 18.904000 13.208200
	CHANNELS 6 Xposition Yposition Zposition Zrotation Yrotation Xrotation 
	JOINT LHipJoint
	{
		OFFSET 0.000000 0.000000 0.000000
		CHANNELS 3 Zrotation Yrotation Xrotation
		JOINT LeftUpLeg
		{
			OFFSET 1.800000 -1.400000 0.085000
			CHANNELS 3 Zrotation Yrotation Xrotation
			JOINT LeftLeg
			{
				OFFSET 2.215000 -6.000000 0.000000
				CHANNELS 3 Zrotation Yrotation Xrotation
				JOINT LeftFoot
				{
					OFFSET 2.500000 -6.900000 0.000000
					CHANNELS 3 Zrotation Yrotation Xrotation
					JOINT LeftToeBase
					{
						OFFSET 0.200000 -0.500000 1.950000
						CHANNELS 3 Zrotation Yrotation Xrotation
						End Site
						{
							OFFSET 0.000000 0.000000 0.000000
						}
					}
				}
			}
		}
	}
	JOINT RHipJoint
	{
		OFFSET 0.000000 0.000000 0.000000
		CHANNELS 3 Zrotation Yrotation Xrotation
		JOINT RightUpLeg
		{
			OFFSET -1.800000 -1.400000 0.085000
			CHANNELS 3 Zrotation Yrotation Xrotation
			JOINT RightLeg
			{
				OFFSET -2.215000 -6.000000 0.000000
				CHANNELS 3 Zrotation Yrotation Xrotation
				JOINT RightFoot
				{
					OFFSET -2.500000 -6.900000 0.000000
					CHANNELS 3 Zrotation Yrotation Xrotation
					JOINT RightToeBase
					{
						OFFSET -0.200000 -0.500000 1.950000
						CHANNELS 3 Zrotation Yrotation Xrotation
						End Site
						{
							OFFSET 0.000000 0.000000 0.000000
						}
					}
				}
			}
		}
	}
	JOINT LowerBack
	{
		OFFSET 0.000000 0.000000 0.000000
		CHANNELS 3 Zrotation Yrotation Xrotation
		JOINT Spine
		{
			OFFSET -0.087000 1.940000 -0.288900
			CHANNELS 3 Zrotation Yrotation Xrotation
			JOINT Spine1
			{
				OFFSET 0.000000 1.950000 0.060000
				CHANNELS 3 Zrotation Yrotation Xrotation
				JOINT Neck
				{
					OFFSET 0.000000 0.000000 0.000000
					CHANNELS 3 Zrotation Yrotation Xrotation
					JOINT Neck1
					{
						OFFSET 0.000000 1.600000 0.340000
						CHANNELS 3 Zrotation Yrotation Xrotation
						JOINT Head
						{
							OFFSET 0.000000 1.667000 -0.240000
							CHANNELS 3 Zrotation Yrotation Xrotation
							End Site
							{
								OFFSET 0.000000 0.000000 0.000000
							}
						}
					}
				}
				JOINT LeftShoulder
				{
					OFFSET 0.000000 0.000000 0.000000
					CHANNELS 3 Zrotation Yrotation Xrotation
					JOINT LeftArm
					{
						OFFSET 2.700000 1.550000 -0.730000
						CHANNELS 3 Zrotation Yrotation Xrotation
						JOINT LeftForeArm
						{
							OFFSET 5.450000 0.000000 0.000000
							CHANNELS 3 Zrotation Yrotation Xrotation
							JOINT LeftHand
							{
								OFFSET 3.450000 0.000000 0.000000
								CHANNELS 3 Zrotation Yrotation Xrotation
								JOINT LeftHandIndex1
								{
									OFFSET 0.750000 0.000000 0.000000
									CHANNELS 3 Zrotation Yrotation Xrotation
									End Site
									{
										OFFSET 0.000000 0.000000 0.000000
									}
								}
							}
						}
					}
				}
				JOINT RightShoulder
				{
					OFFSET 0.000000 0.000000 0.000000
					CHANNELS 3 Zrotation Yrotation Xrotation
					JOINT RightArm
					{
						OFFSET -2.700000 1.550000 -0.730000
						CHANNELS 3 Zrotation Yrotation Xrotation
						JOINT RightForeArm
						{
							OFFSET -5.450000 0.000000 0.000000
							CHANNELS 3 Zrotation Yrotation Xrotation
							JOINT RightHand
							{
								OFFSET -3.450000 0.000000 0.000000
								CHANNELS 3 Zrotation Yrotation Xrotation
								JOINT RightHandIndex1
								{
									OFFSET -0.750000 0.000000 0.000000
									CHANNELS 3 Zrotation Yrotation Xrotation
									End Site
									{
										OFFSET 0.000000 0.000000 0.000000
									}
								}
							}
						}
					}
				}
			}
		}
	}
}
MOTION
Frames: 6
Frame Time: 0.016667
-2.247450 17.110910 -4.433380 -4.668200 -36.716168 4.524878 -14.888948 11.378681 4.092026 6.949491 -3.160158 -34.241988 -16.540261 7.697736 14.620369 -0.588294 4.631477 3.032794 0.793160 0.563720 0.441760 18.603618 -11.727815 2.354774 -6.422965 0.330231 -4.157925 5.136323 -6.007244 16.455401 -0.588439 -4.612854 2.963651 0.433270 0.407080 0.383950 -4.616620 1.930161 -7.148194 8.397343 7.475013 6.556122 -5.526952 8.643321 12.415297 2.767989 -6.061891 -10.249829 -9.103630 7.168842 25.553354 -3.592570 4.726080 -16.970490 -13.424918 -12.061502 5.109823 -58.778325 -10.935876 -2.902921 -12.990585 -31.970933 0.052072 -3.789954 3.090343 0.456230 0.276400 0.033200 0.471100 8.827715 22.017089 6.659972 63.805540 41.721673 15.165686 22.998978 45.121824 6.288020 1.798241 -1.806749 -0.142430 0.363660 -0.217850 -0.117050 
-2.252500 17.074710 -4.421930 -5.438398 -36.781137 5.097656 -14.861689 11.328399 4.075867 7.126100 -3.051953 -34.495258 -15.735341 7.124010 13.362639 -0.671623 4.418960 3.099689 0.791440 0.554480 0.456190 18.634071 -11.770088 2.376344 -6.048632 0.378920 -4.188544 5.174816 -6.069019 16.807321 -0.586292 -4.669702 2.927956 0.444320 0.410510 0.405250 -4.707572 2.094593 -7.156454 9.316365 7.315870 6.257690 -5.973743 8.444152 12.911753 3.227913 -5.579890 -10.418885 -8.186271 6.985856 25.591352 -4.716250 5.017560 -16.611000 -13.432697 -12.957070 5.253771 -57.901115 -11.085169 -2.521820 -13.515071 -31.002320 0.128672 -3.842047 3.094101 0.446150 0.306820 0.019120 0.448290 7.980363 22.481172 6.779751 63.722550 43.963704 16.560551 20.263489 45.107355 5.365593 1.751359 -1.798713 -0.146960 0.351550 -0.195810 -0.137140 
-2.280500 17.002810 -4.399490 -6.894636 -37.462767 5.787327 -14.829652 11.273878 4.048510 7.448440 -2.596731 -35.151749 -14.481197 6.521431 12.158571 -0.786474 4.136091 3.151726 0.893070 0.664580 0.555310 18.672007 -11.829446 2.424129 -5.133090 0.390537 -3.714470 5.014345 -6.107481 17.532462 -0.655357 -4.729820 2.860312 0.517650 0.328650 0.424170 -4.822346 2.307555 -7.191004 10.453556 7.147741 6.505051 -5.876666 8.244861 14.023813 3.627813 -5.280146 -10.630153 -7.510897 7.162265 25.462992 -5.264870 5.391230 -19.482260 -12.901708 -13.812183 5.246703 -57.563160 -11.715688 -1.901774 -14.690695 -29.631216 0.235576 -3.821492 3.115249 0.488130 0.268220 0.076960 0.430420 6.799047 23.106719 6.969379 62.642093 48.969130 19.140330 12.976711 44.669515 2.985884 1.671227 -1.743046 -0.123270 0.339330 -0.227120 -0.172470 
-2.330720 16.912640 -4.382970 -7.622362 -39.537213 5.549910 -14.849165 11.342194 3.995936 7.700550 -1.750521 -35.733360 -13.565100 6.643922 12.741154 -0.878236 4.173833 3.121688 0.918360 0.685330 0.605620 18.639977 -11.900356 2.457424 -4.785169 0.345240 -2.585788 3.965602 -5.912232 17.809643 -0.686733 -4.768702 2.835900 0.560820 0.318640 0.407760 -4.741015 2.359527 -7.250919 9.912986 7.599046 7.352822 -4.295478 8.678381 15.686491 3.863999 -5.455975 -11.504480 -7.611868 8.151775 25.702894 -5.862330 6.394720 -20.912070 -12.479326 -15.690265 5.785696 -57.569615 -11.727787 -2.326050 -15.797262 -30.573383 0.246082 -3.813843 3.086185 0.536700 0.263270 0.090760 0.415350 6.322856 25.714344 7.560776 56.617910 54.074881 19.477566 4.967245 42.610459 0.755963 1.535527 -1.594644 -0.168490 0.387160 -0.222790 -0.212230 
-2.347500 16.825100 -4.350510 -8.952165 -42.191306 5.197622 -14.814355 11.407641 3.984366 8.635207 -0.523357 -36.226460 -13.623365 7.474655 14.815043 -0.833816 4.480703 2.943940 0.993570 0.780350 0.660750 18.637310 -11.994699 2.550513 -5.041199 0.432458 -1.072053 4.088126 -6.035924 17.945202 -0.771181 -4.895085 2.769568 0.594670 0.241300 0.425110 -4.832493 2.460217 -7.454282 11.303692 7.549554 9.072062 -4.335006 8.913278 17.944995 4.510391 -6.293375 -13.022789 -8.786008 9.513955 26.579718 -5.777580 7.518540 -22.685340 -12.575241 -18.443894 6.562329 -57.317782 -11.767581 -3.219797 -13.418811 -30.287170 -0.657697 -3.733237 3.136259 0.565040 0.214310 0.155420 0.413310 5.521139 29.650382 8.824205 47.541320 58.004575 16.364825 -3.522580 39.468266 -1.560225 1.437346 -1.481328 -0.119630 0.353370 -0.259660 -0.218550 
-2.380690 16.732480 -4.302840 -10.010740 -44.200139 4.478773 -14.828799 11.586927 4.069087 9.816814 0.804910 -36.237183 -14.867139 8.728678 16.793336 -0.783735 5.048254 2.691424 1.029690 0.800450 0.728460 18.573873 -11.975981 2.649936 -4.942099 0.308360 1.116985 3.503974 -6.025579 17.939755 -0.862921 -4.974988 2.735127 0.593310 0.165140 0.425940 -4.668164 2.130697 -7.838780 11.664475 7.507712 11.299892 -4.060857 9.033310 19.405104 5.273267 -6.785597 -14.732226 -9.568334 10.102530 28.760419 -6.773950 8.493080 -24.926210 -13.332047 -20.720826 6.984740 -55.261122 -11.910247 -3.476238 -13.493814 -29.373119 -0.866466 -3.651126 3.128665 0.650430 0.157010 0.223330 0.398550 4.977857 32.651450 10.120839 39.261292 62.629689 16.387682 -10.514269 30.629353 -2.701876 1.602326 -1.231751 -0.121250 0.350950 -0.280360 -0.258330 
